<?xml version="1.0" standalone="no"?>
<!DOCTYPE svg PUBLIC "-//W3C//DTD SVG 20010904//EN"
 "http://www.w3.org/TR/2001/REC-SVG-20010904/DTD/svg10.dtd">
<svg version="1.0" xmlns="http://www.w3.org/2000/svg"
 width="189.000000pt" height="34.000000pt" viewBox="0 0 189.000000 34.000000"
 preserveAspectRatio="xMidYMid meet">

<g transform="translate(0.000000,34.000000) scale(0.100000,-0.100000)"
fill="#000000" stroke="none">
<path d="M306 301 c-4 -7 -5 -15 -2 -18 9 -9 19 4 14 18 -4 11 -6 11 -12 0z"/>
<path d="M1040 280 c0 -27 -2 -30 -25 -24 -31 8 -52 -8 -60 -47 -11 -48 15
-78 65 -76 l40 1 0 88 c0 52 -4 88 -10 88 -5 0 -10 -14 -10 -30z m-2 -79 c5
-51 -39 -72 -59 -27 -15 32 4 68 34 64 17 -2 23 -11 25 -37z"/>
<path d="M1416 301 c-4 -7 -5 -15 -2 -18 9 -9 19 4 14 18 -4 11 -6 11 -12 0z"/>
<path d="M1566 301 c-4 -7 -5 -15 -2 -18 9 -9 19 4 14 18 -4 11 -6 11 -12 0z"/>
<path d="M50 293 c0 -31 48 -158 60 -158 8 0 20 24 31 60 17 63 20 62 42 -15
19 -67 37 -58 65 33 13 43 21 82 17 85 -10 10 -21 -15 -34 -74 -7 -30 -16 -54
-20 -54 -4 0 -13 24 -20 53 -6 28 -16 59 -21 67 -9 13 -11 13 -20 0 -5 -8 -15
-39 -21 -67 -7 -29 -16 -53 -21 -53 -4 0 -8 5 -8 11 0 25 -32 119 -41 119 -5
0 -9 -3 -9 -7z"/>
<path d="M1630 276 c0 -8 -6 -17 -12 -19 -10 -4 -10 -7 -1 -14 6 -5 13 -31 15
-58 3 -43 6 -50 26 -53 12 -2 22 1 22 7 0 6 -7 11 -15 11 -11 0 -15 12 -15 45
0 33 4 45 15 45 8 0 15 5 15 10 0 6 -7 10 -15 10 -8 0 -15 7 -15 15 0 8 -4 15
-10 15 -5 0 -10 -6 -10 -14z"/>
<path d="M300 195 c0 -37 4 -65 10 -65 6 0 10 28 10 65 0 37 -4 65 -10 65 -6
0 -10 -28 -10 -65z"/>
<path d="M360 193 c0 -35 4 -63 10 -63 6 0 10 20 10 44 0 46 19 72 45 62 11
-4 15 -20 15 -56 0 -27 5 -50 10 -50 15 0 12 106 -2 118 -7 6 -30 10 -50 9
l-38 -1 0 -63z"/>
<path d="M517 248 c-9 -7 -20 -27 -23 -44 -10 -54 50 -94 96 -64 11 7 6 10
-22 10 -27 0 -40 6 -48 20 -10 19 -8 20 35 20 38 0 45 3 45 19 0 42 -49 64
-83 39z m61 -25 c2 -9 -7 -13 -27 -13 -30 0 -39 9 -24 24 11 10 46 3 51 -11z"/>
<path d="M703 253 c-23 -9 -14 -18 19 -18 41 0 48 -21 9 -30 -70 -15 -65 -69
8 -71 l41 -2 0 52 c0 29 -5 57 -12 64 -12 12 -43 15 -65 5z m55 -80 c-4 -20
-35 -30 -50 -15 -15 15 0 32 28 32 19 0 25 -5 22 -17z"/>
<path d="M820 193 c0 -35 4 -63 10 -63 6 0 10 20 10 44 0 46 19 72 45 62 11
-4 15 -20 15 -56 0 -27 5 -50 10 -50 15 0 12 106 -2 118 -7 6 -30 10 -50 9
l-38 -1 0 -63z"/>
<path d="M1162 243 c-13 -25 -4 -43 24 -53 13 -5 24 -17 24 -26 0 -12 -7 -15
-30 -12 -16 3 -30 1 -30 -4 0 -14 28 -21 55 -14 37 9 34 51 -5 71 -35 18 -31
35 6 35 14 0 22 4 19 10 -10 16 -54 11 -63 -7z"/>
<path d="M1270 170 c0 -53 4 -90 10 -90 6 0 10 13 10 29 0 26 3 29 32 27 25
-1 35 5 47 26 28 49 -16 117 -59 90 -12 -7 -20 -8 -20 -2 0 5 -4 10 -10 10 -6
0 -10 -37 -10 -90z m86 46 c7 -27 -10 -66 -29 -66 -20 0 -37 21 -37 45 0 46
55 63 66 21z"/>
<path d="M1410 195 c0 -37 4 -65 10 -65 6 0 10 28 10 65 0 37 -4 65 -10 65 -6
0 -10 -28 -10 -65z"/>
<path d="M1470 193 c0 -73 17 -86 22 -15 2 38 7 49 26 57 32 14 27 23 -13 22
l-35 -1 0 -63z"/>
<path d="M1560 195 c0 -37 4 -65 10 -65 6 0 10 28 10 65 0 37 -4 65 -10 65 -6
0 -10 -28 -10 -65z"/>
<path d="M1712 243 c-13 -25 -4 -43 24 -53 13 -5 24 -17 24 -26 0 -12 -7 -15
-30 -12 -16 3 -30 1 -30 -4 0 -14 28 -21 55 -14 37 9 34 51 -5 71 -35 18 -31
35 6 35 14 0 22 4 19 10 -10 16 -54 11 -63 -7z"/>
<path d="M1820 145 c0 -8 7 -15 15 -15 8 0 15 7 15 15 0 8 -7 15 -15 15 -8 0
-15 -7 -15 -15z"/>
</g>
</svg>
