<?xml version="1.0" standalone="no"?>
<!DOCTYPE svg PUBLIC "-//W3C//DTD SVG 20010904//EN"
 "http://www.w3.org/TR/2001/REC-SVG-20010904/DTD/svg10.dtd">
<svg version="1.0" xmlns="http://www.w3.org/2000/svg"
 width="474.000000pt" height="474.000000pt" viewBox="0 0 474.000000 474.000000"
 preserveAspectRatio="xMidYMid meet">

<g transform="translate(0.000000,474.000000) scale(0.100000,-0.100000)"
fill="#000000" stroke="none">
<path d="M2190 4533 c-35 -6 -42 -16 -51 -65 -4 -24 -11 -55 -15 -70 -3 -15
-3 -36 1 -45 5 -10 7 -28 6 -40 -1 -12 2 -30 8 -40 6 -13 7 -169 2 -449 l-7
-429 -27 -52 c-19 -36 -48 -69 -95 -107 -91 -72 -146 -136 -182 -211 -53 -111
-53 -111 -36 -803 9 -350 20 -884 26 -1187 14 -770 10 -694 45 -745 21 -30 26
-45 18 -47 -41 -14 23 -44 137 -64 100 -19 528 -19 623 -1 79 15 149 41 142
52 -3 4 3 14 12 21 44 37 45 51 68 884 3 116 15 497 26 849 25 811 25 875 4
956 -28 109 -85 194 -187 282 -142 122 -145 128 -152 405 -6 202 -8 559 -4
738 2 122 -5 153 -38 165 -25 10 -275 12 -324 3z m119 -39 c2 -2 -33 -4 -78
-4 -53 0 -80 4 -76 10 6 10 144 4 154 -6z m-155 -200 c3 -8 2 -12 -4 -9 -6 3
-10 10 -10 16 0 14 7 11 14 -7z m-199 -1603 c44 -6 96 -12 115 -14 28 -3 25
-4 -13 -5 -32 -1 -50 -7 -53 -17 -4 -8 -10 -15 -15 -15 -5 0 -9 7 -9 15 0 18
-26 20 -36 4 -4 -7 1 -16 10 -21 9 -5 14 -14 10 -20 -4 -6 -16 1 -30 17 -23
27 -24 27 -24 7 0 -26 -18 -29 -27 -6 -3 9 0 20 8 25 10 6 10 9 2 9 -7 0 -22
-9 -33 -20 l-20 -20 0 20 c0 12 7 20 18 21 16 1 16 2 0 6 -10 2 -18 11 -18 19
0 10 6 13 18 10 9 -3 53 -10 97 -15z m198 -28 c-7 -2 -21 -2 -30 0 -10 3 -4 5
12 5 17 0 24 -2 18 -5z m97 -77 c0 -8 -11 -11 -32 -9 -50 7 -65 13 -50 22 18
11 82 1 82 -13z m-326 -2 c12 -32 7 -84 -9 -84 -9 0 -15 -9 -15 -24 0 -14 -4
-28 -10 -31 -9 -6 -6 82 5 133 6 26 20 29 29 6z m386 6 c0 -5 -9 -10 -20 -10
-11 0 -20 5 -20 10 0 6 9 10 20 10 11 0 20 -4 20 -10z m50 0 c0 -5 -10 -10
-22 -9 -22 0 -22 1 -3 9 11 5 21 9 23 9 1 1 2 -3 2 -9z m140 -6 c0 -2 -9 -4
-20 -4 -11 0 -20 4 -20 9 0 5 9 7 20 4 11 -3 20 -7 20 -9z m-633 -26 c-3 -8
-6 -5 -6 6 -1 11 2 17 5 13 3 -3 4 -12 1 -19z m50 -120 c-3 -7 -5 -2 -5 12 0
14 2 19 5 13 2 -7 2 -19 0 -25z m-60 -80 c-2 -13 -4 -3 -4 22 0 25 2 35 4 23
2 -13 2 -33 0 -45z m50 10 c-2 -13 -4 -5 -4 17 -1 22 1 32 4 23 2 -10 2 -28 0
-40z m285 31 c38 -6 21 -7 -62 -3 -63 2 -133 9 -155 14 -50 11 138 2 217 -11z
m78 -109 c1 -12 4 -11 15 4 8 11 15 17 15 14 0 -4 2 -13 5 -20 4 -10 -5 -15
-35 -16 -33 -2 -40 0 -40 15 0 23 40 26 40 3z m63 0 c3 -11 1 -20 -4 -20 -5 0
-9 9 -9 20 0 11 2 20 4 20 2 0 6 -9 9 -20z m43 9 c4 -8 9 -7 15 2 6 10 9 8 9
-8 0 -18 -6 -23 -25 -23 -18 0 -25 5 -25 20 0 22 15 27 26 9z m54 -15 c0 -8
-4 -12 -10 -9 -5 3 -10 10 -10 16 0 5 5 9 10 9 6 0 10 -7 10 -16z m-170 -64
c12 -7 12 -12 2 -22 -9 -9 -12 -8 -12 8 0 14 -3 16 -9 6 -10 -17 -73 -12 -79
6 -5 15 75 17 98 2z m27 -12 c-3 -8 -6 -5 -6 6 -1 11 2 17 5 13 3 -3 4 -12 1
-19z m43 2 c0 -5 -4 -10 -10 -10 -5 0 -10 5 -10 10 0 6 5 10 10 10 6 0 10 -4
10 -10z m-295 -210 c0 -73 -3 -100 -12 -100 -10 0 -13 27 -13 100 0 73 3 100
13 100 9 0 12 -27 12 -100z m63 88 c8 -8 15 -8 29 2 15 12 16 12 6 0 -18 -19
-16 -35 1 -21 13 11 14 5 11 -33 -3 -36 -1 -46 12 -46 10 0 13 -6 9 -17 -6
-17 -5 -17 8 0 17 22 30 22 22 1 -5 -14 -4 -15 9 -4 8 7 15 19 15 26 0 8 4 14
9 14 4 0 6 -12 3 -27 -5 -25 -3 -26 11 -15 8 7 14 21 12 30 -2 10 4 26 12 37
15 20 15 20 9 -1 -4 -12 0 -34 9 -50 8 -16 15 -23 15 -16 0 6 5 12 10 12 6 0
10 -8 10 -19 0 -12 -7 -18 -17 -17 -10 0 -19 -8 -21 -19 -4 -22 -30 -55 -44
-55 -12 0 -10 34 3 47 8 8 5 14 -11 23 -29 16 -90 4 -108 -21 -7 -10 -20 -19
-29 -19 -15 0 -14 2 0 18 10 10 17 25 16 33 0 10 -2 10 -6 2 -7 -18 -43 -16
-43 2 0 8 8 15 19 15 10 0 21 8 24 18 2 9 8 24 11 33 4 10 -4 27 -24 47 -27
29 -20 48 8 20z m339 -51 c3 -5 -2 -16 -11 -23 -16 -11 -17 -15 -3 -34 13 -18
15 -19 21 -5 4 11 13 14 25 10 11 -3 22 -1 26 5 10 16 28 12 21 -5 -7 -20 3
-19 26 2 10 9 18 11 18 5 0 -6 -6 -12 -12 -15 -7 -2 -10 -8 -5 -12 4 -5 18 1
30 13 l24 22 11 -25 c13 -28 -1 -35 -17 -7 -10 16 -10 16 -11 0 0 -10 -6 -18
-12 -19 -81 -7 -79 -8 -72 15 l7 21 -23 -20 c-16 -14 -38 -20 -76 -21 -30 -1
-54 3 -54 8 0 5 7 25 15 45 19 44 19 43 -2 44 -16 0 -16 1 1 8 24 9 64 3 73
-12z m-107 -37 c0 -5 -4 -10 -10 -10 -5 0 -10 5 -10 10 0 6 5 10 10 10 6 0 10
-4 10 -10z m-120 -100 c0 -5 -4 -10 -10 -10 -5 0 -10 5 -10 10 0 6 5 10 10 10
6 0 10 -4 10 -10z m70 -151 c0 -11 -4 -18 -10 -14 -5 3 -7 12 -3 20 7 21 13
19 13 -6z m17 -1 c-3 -8 -6 -5 -6 6 -1 11 2 17 5 13 3 -3 4 -12 1 -19z m30 0
c-3 -8 -6 -5 -6 6 -1 11 2 17 5 13 3 -3 4 -12 1 -19z m28 12 c3 -5 1 -10 -4
-10 -6 0 -11 5 -11 10 0 6 2 10 4 10 3 0 8 -4 11 -10z m-385 -28 c0 -8 189
-34 244 -34 15 0 26 -6 26 -14 0 -9 -12 -14 -35 -14 -21 0 -35 5 -35 13 0 9
-2 9 -8 0 -5 -8 -24 -11 -52 -8 -82 9 -135 16 -152 21 -22 6 -24 44 -3 44 8 0
15 -4 15 -8z m316 -38 c-6 -15 -4 -15 10 -3 15 12 17 12 12 -1 -5 -16 -48 -27
-48 -13 0 9 21 33 28 33 2 0 1 -7 -2 -16z m103 -11 c2 -2 -3 -3 -11 -3 -9 0
-19 7 -22 16 -6 15 -4 15 11 3 10 -7 20 -15 22 -16z m211 12 c-15 -18 -46 -20
-56 -3 -4 6 -3 8 4 5 5 -4 21 -3 34 2 32 13 32 13 18 -4z m90 5 c0 -5 -10 -10
-22 -9 -22 0 -22 1 -3 9 11 5 21 9 23 9 1 1 2 -3 2 -9z m-353 -22 c-3 -8 -6
-5 -6 6 -1 11 2 17 5 13 3 -3 4 -12 1 -19z m148 12 c3 -5 1 -10 -4 -10 -6 0
-11 5 -11 10 0 6 2 10 4 10 3 0 8 -4 11 -10z m-35 -11 c0 -5 -4 -8 -9 -5 -5 4
-11 1 -13 -6 -2 -6 -10 -8 -16 -4 -19 12 -14 21 13 24 14 1 25 -3 25 -9z
m-260 -54 c5 3 22 7 39 9 24 3 31 -1 31 -14 0 -13 -8 -17 -30 -15 -65 4 -68 5
-65 23 5 27 7 28 12 9 2 -9 8 -15 13 -12z m159 -1 c4 3 8 -1 8 -8 0 -14 -32
-15 -44 -1 -5 4 -2 5 5 1 7 -5 12 -1 13 11 0 11 3 13 6 5 2 -6 8 -10 12 -8z
m44 1 c-3 -9 -8 -14 -10 -11 -3 3 -2 9 2 15 9 16 15 13 8 -4z m-103 -5 c0 -5
-4 -10 -10 -10 -5 0 -10 5 -10 10 0 6 5 10 10 10 6 0 10 -4 10 -10z m204 1
c-8 -8 -34 -10 -38 -2 -3 4 6 7 19 7 14 0 22 -2 19 -5z m-467 -97 c-3 -3 -12
-4 -19 -1 -8 3 -5 6 6 6 11 1 17 -2 13 -5z m-38 -111 c52 -50 59 -136 15 -184
-17 -19 -60 -25 -80 -11 -44 29 -64 171 -28 206 23 24 61 19 93 -11z m294 -34
c19 -9 26 -21 30 -56 2 -24 7 -47 10 -50 12 -11 37 7 37 26 0 11 4 22 9 25 4
3 6 -11 4 -32 -3 -30 -2 -35 8 -24 17 16 42 16 37 0 -6 -16 -50 -27 -64 -17
-6 5 -34 9 -62 10 -29 1 -52 6 -52 11 0 4 6 8 13 8 6 0 13 12 14 27 0 15 9 33
19 40 15 11 15 13 2 13 -8 0 -21 7 -28 15 -15 18 -9 19 23 4z m94 -31 c-3 -8
-6 -5 -6 6 -1 11 2 17 5 13 3 -3 4 -12 1 -19z m-22 2 c4 -6 1 -17 -5 -25 -6
-8 -9 -19 -6 -24 4 -5 2 -12 -3 -15 -9 -6 -22 53 -14 67 6 10 21 9 28 -3z
m-119 -133 c2 -1 -1 -9 -7 -17 -7 -13 -10 -13 -18 -1 -7 11 -9 11 -13 0 -4
-12 -7 -12 -21 0 -28 22 -20 33 20 26 20 -3 38 -7 39 -8z m40 -46 c-5 -8 -56
-3 -56 5 0 2 14 4 31 4 16 0 28 -4 25 -9z m111 3 c-3 -3 -12 -4 -19 -1 -8 3
-5 6 6 6 11 1 17 -2 13 -5z"/>
<path d="M2245 1900 c-3 -5 -1 -10 4 -10 6 0 11 5 11 10 0 6 -2 10 -4 10 -3 0
-8 -4 -11 -10z"/>
<path d="M2390 2025 c-14 -16 -3 -20 19 -6 8 5 9 11 3 15 -5 3 -15 -1 -22 -9z"/>
<path d="M2374 1987 c-7 -20 3 -37 21 -37 23 0 26 16 5 35 -18 16 -20 16 -26
2z"/>
<path d="M2450 1959 c0 -5 5 -7 10 -4 6 3 10 8 10 11 0 2 -4 4 -10 4 -5 0 -10
-5 -10 -11z"/>
<path d="M1915 1389 c-11 -17 -2 -18 19 -3 17 12 17 14 4 14 -9 0 -20 -5 -23
-11z"/>
<path d="M1964 1315 c-8 -31 10 -55 27 -38 14 14 8 55 -8 60 -7 3 -15 -7 -19
-22z"/>
<path d="M1900 1308 c1 -15 24 -48 34 -48 3 0 6 14 6 30 0 23 -4 30 -20 30
-11 0 -20 -6 -20 -12z"/>
</g>
</svg>
