<?xml version="1.0" standalone="no"?>
<!DOCTYPE svg PUBLIC "-//W3C//DTD SVG 20010904//EN"
 "http://www.w3.org/TR/2001/REC-SVG-20010904/DTD/svg10.dtd">
<svg version="1.0" xmlns="http://www.w3.org/2000/svg"
 width="1000.000000pt" height="1000.000000pt" viewBox="0 0 1000.000000 1000.000000"
 preserveAspectRatio="xMidYMid meet">

<g transform="translate(0.000000,1000.000000) scale(0.100000,-0.100000)"
fill="#000000" stroke="none">
<path d="M4810 9559 c-158 -13 -200 -34 -200 -102 0 -15 -7 -38 -15 -50 -10
-16 -17 -66 -21 -169 -7 -141 -6 -148 16 -185 l23 -38 -7 -495 c-6 -501 -21
-1040 -31 -1140 -11 -108 -32 -156 -110 -248 -40 -48 -96 -109 -125 -137 -79
-76 -222 -244 -280 -330 -99 -147 -137 -249 -166 -445 -14 -94 -14 -379 -4
-2715 6 -1435 15 -2680 19 -2765 6 -128 11 -162 29 -196 28 -56 71 -89 129
-103 79 -18 443 -31 1033 -38 572 -6 706 -1 822 33 66 20 90 42 119 107 27 61
28 86 54 2067 8 652 20 1514 25 1915 6 402 12 926 13 1165 2 481 -2 532 -65
730 -62 194 -118 278 -343 510 -89 92 -180 195 -202 229 -73 109 -72 93 -84
1023 -11 827 -11 827 9 860 17 28 22 58 28 174 l7 141 -27 39 c-14 21 -26 51
-26 66 0 40 -10 57 -42 74 -58 30 -350 41 -578 23z m872 -3828 c201 -3 369 -9
373 -13 4 -4 2 -447 -4 -985 -6 -538 -14 -1286 -17 -1663 -4 -377 -8 -686 -9
-688 -9 -11 -516 -22 -1065 -23 -637 -1 -967 10 -998 34 -10 8 -12 63 -10 251
2 133 1 882 0 1666 l-4 1425 69 6 c70 7 1015 1 1665 -10z"/>
<path d="M5973 5603 c9 -2 25 -2 35 0 9 3 1 5 -18 5 -19 0 -27 -2 -17 -5z"/>
<path d="M5018 5593 c7 -3 16 -2 19 1 4 3 -2 6 -13 5 -11 0 -14 -3 -6 -6z"/>
<path d="M5870 5580 c8 -5 41 -10 73 -10 l59 0 -6 -312 c-3 -172 -11 -846 -17
-1498 -5 -652 -11 -1194 -12 -1205 -2 -17 -14 -22 -82 -31 l-80 -12 89 2 90 1
2 150 c3 227 19 2416 19 2685 l0 235 -75 3 c-52 1 -70 -1 -60 -8z"/>
<path d="M4937 5299 c-27 -15 -20 -29 11 -23 19 4 32 0 42 -11 12 -15 11 -16
-16 -10 -27 6 -28 5 -11 -8 10 -8 27 -13 37 -10 13 3 20 0 20 -8 0 -16 37 -42
49 -35 4 3 6 19 3 35 -2 17 -7 29 -11 27 -4 -3 -13 0 -21 5 -12 8 -12 12 -2
16 6 2 9 9 6 14 -4 6 -11 6 -19 -1 -10 -8 -21 -7 -42 3 -20 11 -34 12 -46 6z
m113 -79 c0 -5 -2 -10 -4 -10 -3 0 -8 5 -11 10 -3 6 -1 10 4 10 6 0 11 -4 11
-10z"/>
<path d="M4895 5271 c3 -5 1 -12 -5 -16 -5 -3 -10 0 -10 7 -1 7 -7 2 -15 -12
-8 -14 -15 -20 -15 -15 -2 32 -22 -36 -25 -83 -3 -64 -47 -205 -70 -228 -8 -9
-15 -23 -15 -32 0 -12 5 -10 17 8 31 45 51 62 63 55 7 -4 10 -18 7 -31 -7 -37
13 -28 20 9 4 17 6 36 5 41 -6 19 10 63 22 63 8 0 11 -8 8 -19 -2 -10 -9 -15
-16 -11 -6 4 -5 -1 3 -10 7 -9 9 -17 5 -17 -5 0 -9 -15 -8 -32 2 -49 3 -51 18
-38 9 7 13 24 11 43 -5 35 4 79 14 73 3 -2 6 8 7 22 2 62 23 126 45 143 13 10
20 21 16 25 -4 4 -13 2 -19 -4 -16 -16 -36 -15 -55 4 -13 13 -14 20 -5 35 15
23 15 29 1 29 -5 0 -8 -4 -4 -9z m-10 -100 c-8 -13 -35 -15 -35 -2 0 5 8 11
18 13 21 5 26 2 17 -11z m5 -49 c0 -15 -11 -21 -27 -15 -12 5 -12 7 -1 14 17
11 28 11 28 1z m-8 -44 c-9 -9 -15 -9 -24 0 -9 9 -7 12 12 12 19 0 21 -3 12
-12z m-15 -24 c-3 -3 -12 -4 -19 -1 -8 3 -5 6 6 6 11 1 17 -2 13 -5z m-23 -29
c-4 -8 -10 -15 -15 -15 -5 0 -9 -7 -9 -15 0 -8 -4 -15 -9 -15 -5 0 -4 14 2 30
6 17 17 30 24 30 7 0 10 -7 7 -15z"/>
<path d="M4926 5235 c4 -8 10 -12 15 -9 11 6 2 24 -11 24 -5 0 -7 -7 -4 -15z"/>
<path d="M5071 5165 c0 -11 -10 -29 -22 -38 -11 -10 -18 -25 -15 -32 3 -8 0
-17 -6 -21 -7 -5 -7 -9 1 -13 7 -5 1 -18 -17 -37 -21 -23 -35 -30 -63 -29 -32
1 -36 -2 -36 -21 0 -19 3 -22 17 -14 13 7 21 5 30 -5 7 -8 22 -15 34 -15 17 0
18 2 6 10 -12 8 -12 10 3 16 9 3 17 14 17 24 0 11 5 22 12 26 7 5 8 2 3 -7 -6
-11 -5 -12 5 -2 8 7 15 21 16 30 2 10 8 34 14 53 7 20 10 49 7 65 -2 17 -5 21
-6 10z"/>
<path d="M5020 5162 c0 -7 -12 -12 -27 -13 -16 0 -22 -3 -15 -6 6 -2 12 -11
12 -19 0 -8 5 -14 10 -14 12 0 33 50 25 58 -3 3 -5 0 -5 -6z"/>
<path d="M4970 5028 c0 -4 7 -8 15 -8 8 0 15 4 15 8 0 5 -7 9 -15 9 -8 0 -15
-4 -15 -9z"/>
<path d="M5310 4971 c0 -5 -9 -13 -20 -16 -24 -8 -23 -31 3 -57 24 -25 21 -38
-8 -38 -29 0 -32 -15 -12 -63 14 -34 12 -61 -4 -51 -6 3 -16 0 -24 -6 -12 -10
-15 -10 -15 1 0 11 -2 11 -10 -1 -7 -11 -5 -19 7 -27 9 -7 12 -13 6 -13 -5 0
-15 -15 -21 -32 -5 -18 -10 -25 -11 -15 -2 27 -21 20 -33 -13 -9 -28 -11 -29
-23 -13 -10 14 -11 21 -2 32 10 12 9 14 -5 8 -10 -3 -18 -2 -18 3 0 6 -4 10
-10 10 -17 0 -11 -29 10 -50 11 -11 20 -25 20 -31 0 -6 -11 3 -25 19 -14 17
-25 41 -25 54 0 14 -8 27 -22 33 -12 6 -24 17 -27 25 -2 9 10 4 32 -13 21 -15
37 -27 38 -25 6 29 5 58 -2 58 -6 0 -7 -4 -4 -10 10 -16 -18 -12 -45 7 -17 12
-25 13 -28 5 -5 -17 -22 -15 -22 3 0 23 -17 18 -24 -7 l-7 -23 -11 25 c-6 14
-10 31 -9 39 1 7 -2 10 -8 6 -7 -4 -11 5 -11 24 0 17 -4 31 -10 31 -5 0 -9 -5
-7 -12 1 -7 -2 -13 -8 -13 -21 -2 -56 -17 -51 -22 3 -3 -2 -12 -10 -20 -9 -9
-12 -23 -8 -36 5 -15 3 -19 -10 -14 -8 3 -18 2 -21 -3 -10 -16 -35 -11 -35 7
0 15 -2 14 -15 -3 -11 -14 -14 -15 -15 -4 0 8 -3 26 -6 40 -4 19 -3 22 5 10 8
-11 9 -5 5 25 -4 30 -3 36 5 25 9 -12 11 -9 12 15 0 24 2 26 8 11 7 -18 8 -18
14 -2 10 25 9 38 -3 31 -5 -3 -10 -1 -10 6 0 7 -9 3 -20 -9 -16 -17 -21 -36
-21 -84 0 -35 2 -76 4 -93 3 -16 1 -32 -4 -35 -4 -3 -10 -27 -13 -53 -4 -47
-42 -119 -86 -162 -28 -29 -25 -34 13 -26 17 4 46 4 62 0 17 -4 22 -7 13 -8
-10 0 -18 -5 -18 -9 0 -14 -54 -35 -58 -23 -5 16 -22 13 -22 -3 0 -8 -16 -28
-35 -45 -20 -17 -32 -31 -28 -32 4 0 -1 -4 -12 -8 -11 -5 -20 -12 -20 -17 0
-5 -4 -15 -9 -23 -7 -11 -10 -11 -17 0 -6 10 -9 10 -9 2 0 -31 25 -18 83 41
69 72 88 79 155 50 22 -9 60 -14 95 -13 35 2 61 -2 66 -9 3 -6 6 9 6 34 0 26
-5 44 -11 44 -6 0 -11 -10 -10 -22 2 -34 -37 -36 -69 -4 l-25 25 0 -24 c0 -43
-17 -27 -30 26 -15 61 -7 156 16 200 8 17 30 37 47 44 18 8 30 15 27 15 -29 7
-50 4 -50 -7 0 -7 -4 -14 -10 -14 -5 -1 -15 -2 -20 -3 -6 0 -15 -8 -20 -16 -8
-12 -10 -11 -10 8 0 15 6 22 20 22 13 0 20 7 20 18 0 11 12 22 31 29 25 10 30
10 25 -2 -3 -9 0 -12 10 -8 7 3 14 9 14 14 0 5 5 9 10 9 6 0 10 -9 10 -20 0
-13 5 -18 15 -14 8 4 15 1 15 -6 0 -6 8 -10 18 -9 29 3 42 -1 42 -10 0 -5 -13
-9 -30 -9 -16 1 -30 5 -30 10 0 4 -7 8 -15 8 -8 0 -15 -4 -15 -8 0 -13 48 -32
64 -26 7 3 16 -2 20 -11 4 -11 1 -15 -10 -13 -10 2 -20 -10 -29 -36 -8 -22
-12 -43 -10 -47 3 -3 -4 -14 -15 -24 -23 -20 -28 -44 -6 -26 12 10 16 6 22
-21 4 -18 6 -50 6 -70 -1 -20 3 -40 8 -43 7 -5 9 22 6 79 -3 48 -1 86 4 86 33
0 62 -25 95 -85 38 -68 43 -81 44 -127 1 -32 24 -38 40 -11 5 10 13 14 18 10
4 -5 -4 -19 -19 -32 -16 -13 -28 -34 -29 -47 0 -13 -4 -32 -8 -43 -5 -12 -4
-26 3 -34 9 -11 7 -13 -10 -7 -33 10 -37 -39 -14 -152 11 -52 20 -121 20 -153
0 -60 16 -92 18 -36 0 18 1 39 1 47 1 8 -2 41 -5 73 -6 50 -4 60 12 72 18 13
18 13 -1 12 -16 -2 -19 3 -17 23 2 14 8 29 13 35 5 5 9 16 9 25 0 9 9 25 20
35 10 9 19 20 18 24 -1 3 2 14 6 23 4 10 6 23 3 30 -3 8 -9 3 -15 -12 -10 -24
-11 -24 -11 11 -1 48 19 89 44 89 17 0 17 -2 5 -10 -8 -5 -10 -10 -5 -10 6 1
19 7 29 15 20 15 20 15 0 30 -11 8 -14 15 -6 15 6 0 12 7 12 16 0 35 23 95 32
82 11 -19 10 -30 -4 -22 -8 5 -9 0 -5 -16 3 -13 1 -30 -4 -37 -14 -16 -8 -35
8 -25 7 5 14 40 17 88 3 44 8 92 11 107 4 15 5 27 1 27 -3 0 -10 -18 -16 -40
-6 -21 -16 -45 -23 -52 -6 -8 -14 -20 -16 -28 -25 -87 -37 -110 -58 -110 -28
0 -28 1 -3 50 11 22 20 44 20 49 0 6 11 22 25 37 14 15 25 23 25 18 0 -5 5 -2
10 6 5 8 9 26 9 40 -1 20 -2 21 -6 5 -5 -21 -61 -75 -78 -75 -5 0 -4 4 3 9 12
7 19 37 21 83 1 12 10 16 37 16 20 0 41 5 46 10 15 15 82 -56 68 -73 -6 -7 -9
-21 -8 -31 1 -11 -2 -36 -6 -58 -7 -29 -5 -40 5 -47 9 -5 17 -3 22 9 5 11 6 8
3 -11 -2 -20 0 -25 7 -18 6 6 10 27 9 46 -2 23 2 35 10 35 10 0 10 2 1 8 -7 4
-15 22 -19 39 -6 30 -1 38 39 66 10 7 20 21 22 32 2 11 4 20 5 20 1 0 3 7 5
16 1 9 6 27 10 39 5 15 4 20 -4 16 -6 -4 -11 -13 -11 -21 0 -7 -6 -15 -12 -18
-9 -3 -14 7 -16 30 -2 31 0 35 18 30 14 -3 24 1 31 15 8 15 8 19 0 14 -6 -4
-11 -1 -11 7 0 7 -11 20 -25 27 -14 8 -25 22 -25 34 0 17 2 18 10 6 7 -10 10
-11 11 -2 2 17 4 23 13 51 5 15 4 27 -4 35 -10 8 -11 5 -5 -14 l8 -25 -34 26
c-19 15 -32 30 -31 34 2 4 -2 12 -10 16 -10 7 -10 9 0 9 6 0 12 4 12 10 0 6
-9 6 -25 0 -36 -14 -31 4 6 21 30 14 31 16 15 32 -19 19 -36 22 -36 8z m-390
-182 c0 -10 4 -19 10 -19 10 0 33 -71 25 -78 -3 -3 -10 8 -17 25 -7 16 -18 28
-24 26 -7 -2 -10 7 -8 22 2 19 -1 25 -12 21 -11 -4 -12 -2 -2 14 14 22 28 17
28 -11z m378 -4 c-3 -3 -9 2 -12 12 -6 14 -5 15 5 6 7 -7 10 -15 7 -18z m-408
-20 c0 -2 -7 -5 -15 -9 -9 -3 -15 0 -15 9 0 9 6 12 15 9 8 -4 15 -7 15 -9z
m481 -39 c12 7 1 -66 -12 -80 -11 -13 -22 58 -13 86 6 19 9 20 12 5 2 -9 8
-14 13 -11z m-41 -95 c0 -6 -4 -13 -10 -16 -5 -3 -10 1 -10 9 0 9 5 16 10 16
6 0 10 -4 10 -9z m-125 -11 c3 -6 -1 -7 -9 -4 -18 7 -21 14 -7 14 6 0 13 -4
16 -10z m-249 -82 c-10 -17 -11 -17 -17 4 -3 13 -3 31 -1 42 5 17 6 16 17 -5
10 -17 10 -27 1 -41z m88 11 c-2 -19 1 -32 10 -35 8 -3 14 -14 13 -24 -1 -18
-3 -18 -19 -3 -13 11 -18 31 -18 67 0 32 4 46 9 38 4 -8 7 -27 5 -43z m76 36
c11 -13 10 -14 -4 -9 -9 3 -16 10 -16 15 0 13 6 11 20 -6z m210 -7 c0 -18 -2
-20 -9 -8 -6 8 -7 18 -5 22 9 14 14 9 14 -14z m-207 -78 c18 -19 24 -28 15
-21 -15 11 -18 11 -18 -2 0 -8 6 -18 13 -20 9 -4 9 -6 0 -6 -14 -1 -63 93 -62
118 0 9 5 5 10 -9 6 -14 24 -41 42 -60z m-58 -50 c3 -5 1 -10 -4 -10 -6 0 -11
5 -11 10 0 6 2 10 4 10 3 0 8 -4 11 -10z m42 -322 c-3 -8 -6 -5 -6 6 -1 11 2
17 5 13 3 -3 4 -12 1 -19z"/>
<path d="M5380 4930 c0 -5 5 -10 11 -10 5 0 7 5 4 10 -3 6 -8 10 -11 10 -2 0
-4 -4 -4 -10z"/>
<path d="M5070 4880 c0 -5 5 -10 10 -10 6 0 10 5 10 10 0 6 -4 10 -10 10 -5 0
-10 -4 -10 -10z"/>
<path d="M4994 4856 c-3 -13 -4 -37 -1 -52 3 -23 4 -21 6 12 0 22 6 45 13 52
9 9 9 12 0 12 -6 0 -14 -11 -18 -24z"/>
<path d="M4720 4833 c0 -6 -9 -13 -20 -16 -14 -4 -20 -14 -20 -35 0 -21 6 -31
20 -35 23 -6 26 3 8 21 -8 8 -8 12 -1 12 12 0 27 49 18 58 -3 3 -5 1 -5 -5z"/>
<path d="M5115 4810 c3 -5 10 -10 16 -10 5 0 9 5 9 10 0 6 -7 10 -16 10 -8 0
-12 -4 -9 -10z"/>
<path d="M5222 4807 c-16 -19 11 -58 28 -41 14 14 10 46 -6 51 -6 2 -16 -2
-22 -10z"/>
<path d="M4776 4793 c-6 -14 -5 -15 5 -6 7 7 10 15 7 18 -3 3 -9 -2 -12 -12z"/>
<path d="M5060 4791 c0 -5 5 -13 10 -16 6 -3 10 -2 10 4 0 5 -4 13 -10 16 -5
3 -10 2 -10 -4z"/>
<path d="M5099 4779 c-10 -6 -6 -9 14 -9 15 0 27 -4 27 -10 0 -5 5 -10 10 -10
18 0 10 17 -13 27 -15 7 -29 8 -38 2z"/>
<path d="M4660 4719 c0 -5 5 -7 10 -4 6 3 10 8 10 11 0 2 -4 4 -10 4 -5 0 -10
-5 -10 -11z"/>
<path d="M4672 4693 c-11 -16 -36 -48 -56 -73 -43 -56 -118 -181 -112 -188 3
-2 12 3 21 12 9 9 22 16 28 16 7 0 6 4 -3 10 -11 8 -8 9 12 4 31 -7 98 28 98
52 0 8 5 14 11 14 7 0 9 11 6 26 -4 20 0 28 15 32 14 3 16 7 7 12 -9 6 -10 20
-2 59 11 58 5 63 -25 24z m-46 -135 c-9 -12 -16 -19 -16 -15 0 11 24 47 28 42
2 -2 -3 -14 -12 -27z m-25 -55 c-8 -15 -10 -15 -11 -2 0 17 10 32 18 25 2 -3
-1 -13 -7 -23z"/>
<path d="M5185 4710 c-4 -6 -11 -8 -16 -5 -5 4 -9 -1 -9 -9 0 -22 17 -20 30 4
11 20 6 29 -5 10z"/>
<path d="M4711 4663 c-1 -6 -4 -20 -7 -30 -5 -17 -5 -17 6 0 6 10 9 23 6 30
-3 9 -5 9 -5 0z"/>
<path d="M4780 4511 c0 -6 5 -13 10 -16 6 -3 10 1 10 9 0 9 -4 16 -10 16 -5 0
-10 -4 -10 -9z"/>
<path d="M5371 4486 c-9 -10 -7 -17 6 -27 15 -13 16 -12 10 9 -4 18 -2 22 9
18 9 -3 12 -1 9 4 -9 14 -21 12 -34 -4z"/>
<path d="M5286 4482 c-3 -5 1 -9 9 -9 8 0 12 4 9 9 -3 4 -7 8 -9 8 -2 0 -6 -4
-9 -8z"/>
<path d="M5286 4445 c-11 -8 -16 -18 -11 -22 4 -5 10 -2 12 5 3 6 9 10 14 6 5
-3 9 2 9 10 0 19 0 19 -24 1z"/>
<path d="M4511 4404 c0 -11 3 -14 6 -6 3 7 2 16 -1 19 -3 4 -6 -2 -5 -13z"/>
<path d="M4546 4385 c-11 -8 -15 -15 -9 -15 6 0 16 7 23 15 16 19 11 19 -14 0z"/>
<path d="M5436 4387 c3 -8 1 -18 -5 -22 -6 -3 -8 -17 -5 -31 4 -14 2 -24 -5
-24 -6 0 -11 11 -11 25 0 29 -15 33 -23 6 -3 -13 6 -29 28 -50 33 -31 60 -45
31 -15 -17 17 -21 34 -7 34 11 0 11 79 0 86 -5 3 -6 -1 -3 -9z"/>
<path d="M4455 4370 c-3 -5 -1 -10 4 -10 6 0 11 5 11 10 0 6 -2 10 -4 10 -3 0
-8 -4 -11 -10z"/>
<path d="M4495 4354 c-8 -9 -22 -14 -29 -11 -8 3 -22 -3 -31 -13 -13 -15 -15
-32 -11 -87 3 -37 5 -74 5 -80 2 -28 21 -11 21 18 0 17 4 28 10 24 6 -3 10 3
10 15 0 11 -6 23 -14 26 -8 3 -12 12 -10 19 3 7 1 16 -5 20 -20 12 -12 23 29
41 21 10 41 23 44 31 7 17 1 16 -19 -3z"/>
<path d="M5007 4343 c-4 -3 -7 -13 -7 -22 1 -13 3 -13 11 2 11 19 8 33 -4 20z"/>
<path d="M4715 4321 c22 -10 44 -16 49 -13 13 7 -36 31 -64 31 -21 0 -19 -3
15 -18z"/>
<path d="M4867 4300 c43 -19 93 -81 72 -89 -14 -4 -60 39 -53 50 3 5 -2 6 -10
3 -9 -3 -16 -1 -16 5 0 6 -4 11 -10 11 -5 0 -10 -9 -10 -20 0 -11 5 -20 12
-20 16 0 115 -78 122 -97 10 -24 0 -27 -20 -5 -11 10 -49 31 -87 45 -75 30
-86 32 -69 15 16 -16 15 -39 -2 -32 -23 9 -27 -12 -6 -31 14 -12 20 -14 20 -5
0 10 3 10 15 0 23 -19 29 -5 10 24 -10 14 -13 26 -7 26 6 0 12 -4 14 -8 2 -4
24 -22 51 -40 45 -30 61 -31 35 -2 -11 12 -10 12 5 0 21 -15 57 -24 57 -13 0
3 -5 35 -11 70 -10 57 -16 67 -54 98 -27 22 -53 35 -71 35 -27 0 -27 -1 13
-20z"/>
<path d="M4925 4310 c3 -5 10 -10 16 -10 5 0 9 5 9 10 0 6 -7 10 -16 10 -8 0
-12 -4 -9 -10z"/>
<path d="M5376 4301 c-3 -5 1 -11 9 -14 9 -4 12 -1 8 9 -6 16 -10 17 -17 5z"/>
<path d="M4635 4275 c-16 -13 -35 -24 -41 -25 -6 0 -19 -9 -28 -19 -13 -15
-14 -21 -5 -27 7 -4 15 -2 17 5 3 9 7 9 18 0 11 -9 14 -8 14 4 0 9 8 21 18 26
9 6 13 11 7 11 -5 0 4 11 20 25 17 13 26 24 20 25 -5 0 -23 -11 -40 -25z"/>
<path d="M5270 4281 c0 -6 4 -13 10 -16 6 -3 7 1 4 9 -7 18 -14 21 -14 7z"/>
<path d="M5320 4252 c0 -12 4 -22 9 -22 10 0 9 26 -2 36 -4 4 -7 -2 -7 -14z"/>
<path d="M4740 4250 c0 -5 0 -12 0 -15 -1 -2 -23 -41 -50 -86 -28 -44 -50 -85
-50 -90 0 -5 -4 -9 -10 -9 -5 0 -10 6 -10 13 0 17 -50 54 -86 63 -26 7 -27 6
-21 -26 4 -18 3 -38 -2 -44 -5 -6 -11 -22 -14 -36 -4 -22 -5 -21 -7 8 -1 17
-4 37 -5 42 -1 6 -3 17 -4 25 -1 19 -25 19 -40 1 -10 -12 -8 -19 9 -36 15 -15
24 -41 29 -83 5 -34 9 -50 10 -35 0 15 6 30 11 33 6 3 10 19 10 36 0 19 5 29
15 29 11 0 15 -13 16 -52 l1 -53 13 40 c8 22 14 52 14 68 1 30 12 35 30 13 9
-11 9 -25 1 -55 -6 -23 -14 -41 -19 -41 -4 0 -8 -24 -9 -52 0 -29 -4 -74 -7
-100 -7 -45 -6 -48 16 -48 16 0 20 3 13 10 -6 6 -8 24 -6 41 3 22 7 27 13 18
6 -10 9 -7 9 11 0 20 2 22 10 10 7 -11 10 -5 11 25 1 22 1 44 0 48 -1 5 3 6 8
3 10 -7 25 22 22 42 -1 6 3 12 9 12 5 0 10 7 10 16 0 26 19 5 45 -50 14 -30
23 -60 19 -69 -3 -8 -1 -18 5 -22 7 -4 8 1 4 12 -6 17 -5 17 14 0 l21 -19 -20
42 c-13 25 -21 61 -21 93 0 32 -2 39 -4 20 -2 -18 -9 -33 -14 -33 -5 0 -9 8
-7 18 2 9 -3 16 -9 15 -7 -2 -13 2 -13 7 0 6 7 10 15 10 8 0 15 6 15 14 0 8 5
16 11 18 9 3 9 9 1 25 -7 12 -10 35 -8 52 2 17 2 31 0 31 -1 0 -21 -34 -44
-76 -32 -58 -45 -73 -54 -64 -8 9 -8 14 1 17 7 3 29 35 48 71 39 74 74 124 75
105 0 -6 -4 -15 -10 -18 -17 -10 -11 -25 9 -25 27 0 33 14 16 36 -8 10 -15 27
-15 37 0 18 -20 25 -20 7z"/>
<path d="M5239 4221 c-9 -9 -19 -40 -22 -71 -3 -34 -2 -47 3 -35 5 11 9 35 9
53 1 36 7 39 33 15 12 -11 22 -13 29 -6 13 13 1 43 -16 37 -7 -3 -15 1 -17 9
-2 12 -6 11 -19 -2z"/>
<path d="M5395 4210 c-3 -5 -1 -10 4 -10 6 0 11 5 11 10 0 6 -2 10 -4 10 -3 0
-8 -4 -11 -10z"/>
<path d="M4527 4169 c-3 -12 0 -19 9 -19 8 0 14 -5 14 -12 0 -17 13 0 17 21 4
26 -34 35 -40 10z"/>
<path d="M5326 4181 c-4 -7 -5 -15 -2 -18 9 -9 19 4 14 18 -4 11 -6 11 -12 0z"/>
<path d="M5187 4152 c-3 -15 -15 -38 -27 -52 -36 -41 -53 -80 -41 -94 7 -8 6
-21 -4 -40 -8 -16 -15 -36 -15 -45 1 -9 17 18 38 59 20 41 40 77 44 80 10 8
27 120 18 120 -4 0 -10 -12 -13 -28z"/>
<path d="M5002 4115 c0 -16 2 -22 5 -12 2 9 2 23 0 30 -3 6 -5 -1 -5 -18z"/>
<path d="M4746 4122 c-3 -6 0 -16 7 -24 8 -7 16 -20 20 -28 5 -13 5 -13 6 0 1
23 -25 64 -33 52z"/>
<path d="M4780 4108 c0 -9 6 -23 13 -30 8 -7 12 -19 9 -27 -2 -7 6 -27 18 -44
13 -16 23 -43 24 -59 1 -22 5 -27 19 -22 27 9 21 -23 -14 -68 -26 -32 -36 -38
-55 -34 -20 5 -24 3 -24 -18 0 -13 7 -29 15 -36 13 -11 14 -10 9 5 -5 12 -4
16 4 11 13 -8 81 50 92 78 6 18 9 14 15 -19 8 -47 34 -103 52 -109 22 -9 34
29 24 74 -10 43 -9 45 19 30 25 -14 28 -4 32 145 2 47 -3 75 -11 75 -15 0 -19
-47 -8 -99 5 -28 6 -58 2 -68 -5 -10 -7 -22 -6 -26 1 -5 -4 -7 -11 -5 -7 3
-19 24 -27 49 -16 51 -33 92 -42 99 -3 3 -17 25 -30 49 -14 24 -32 45 -42 47
-21 3 -23 -12 -2 -20 21 -8 19 -39 -4 -67 l-19 -24 -11 28 c-6 15 -10 31 -9
35 1 4 -5 21 -15 37 -10 19 -16 24 -17 13z"/>
<path d="M4973 4065 c-3 -9 -3 -18 -1 -21 3 -3 8 4 11 16 6 23 -1 27 -10 5z"/>
<path d="M4845 4059 c-4 -6 -5 -12 -2 -15 2 -3 7 2 10 11 7 17 1 20 -8 4z"/>
<path d="M5195 3998 c-12 -81 -17 -98 -26 -92 -5 3 -9 -2 -9 -12 0 -13 -3 -14
-14 -5 -11 9 -15 7 -19 -9 -4 -17 -2 -20 14 -15 19 6 20 3 14 -47 l-5 -53 19
39 c18 38 49 221 38 232 -3 3 -8 -14 -12 -38z"/>
<path d="M4780 3980 c0 -28 3 -40 9 -32 6 10 13 4 25 -20 l17 -33 -7 35 c-3
19 -15 49 -25 65 l-19 30 0 -45z"/>
<path d="M4955 4000 c3 -5 8 -10 11 -10 2 0 4 5 4 10 0 6 -5 10 -11 10 -5 0
-7 -4 -4 -10z"/>
<path d="M4985 3960 c12 -40 26 -59 19 -25 -4 17 -11 35 -16 40 -7 7 -8 1 -3
-15z"/>
<path d="M4787 3924 c-13 -13 22 -64 44 -64 4 0 14 11 23 25 14 22 15 25 1 25
-8 0 -15 -6 -15 -14 0 -28 -18 -26 -32 4 -8 17 -17 27 -21 24z"/>
<path d="M5352 3923 c-6 -2 -10 -9 -7 -13 7 -11 35 -2 35 11 0 10 -8 10 -28 2z"/>
<path d="M4684 3886 c14 -19 26 -38 26 -43 0 -13 49 -69 50 -56 0 6 -4 14 -9
17 -4 3 -14 26 -21 51 -12 43 -33 65 -61 65 -6 0 0 -15 15 -34z"/>
<path d="M5300 3905 c0 -8 -4 -15 -10 -15 -5 0 -10 -4 -10 -9 0 -5 9 -7 19 -4
23 6 36 43 15 43 -8 0 -14 -7 -14 -15z"/>
<path d="M4472 3870 c0 -14 2 -19 5 -12 2 6 2 18 0 25 -3 6 -5 1 -5 -13z"/>
<path d="M5120 3815 c0 -8 2 -15 4 -15 2 0 6 7 10 15 3 8 1 15 -4 15 -6 0 -10
-7 -10 -15z"/>
<path d="M5192 3801 c-8 -5 -6 -12 8 -24 16 -14 24 -15 45 -5 19 9 22 14 14
25 -15 17 -43 18 -33 1 6 -10 5 -10 -7 -1 -8 6 -20 9 -27 4z"/>
<path d="M4828 3743 c7 -3 16 -2 19 1 4 3 -2 6 -13 5 -11 0 -14 -3 -6 -6z"/>
<path d="M5753 3375 l-1 -75 28 0 c15 0 32 6 37 13 18 22 23 65 12 94 -12 32
-26 43 -55 43 -18 0 -20 -6 -21 -75z m57 46 c14 -27 13 -84 -2 -99 -28 -28
-38 -13 -38 53 0 50 3 65 15 65 8 0 19 -9 25 -19z"/>
<path d="M5070 3429 c0 -5 5 -7 10 -4 6 3 10 8 10 11 0 2 -4 4 -10 4 -5 0 -10
-5 -10 -11z"/>
<path d="M5134 3433 c10 -11 37 -12 30 -2 -3 5 -12 9 -21 9 -9 0 -13 -3 -9 -7z"/>
<path d="M5241 3390 l-2 -55 -35 40 -36 40 39 -56 38 -56 3 33 c2 19 1 51 -1
72 -3 29 -4 26 -6 -18z"/>
<path d="M5295 3370 c0 -40 4 -70 10 -70 6 0 10 30 10 70 0 40 -4 70 -10 70
-6 0 -10 -30 -10 -70z"/>
<path d="M5411 3403 c10 -21 19 -52 19 -70 0 -47 15 -41 17 7 1 22 -2 40 -6
40 -5 0 -14 14 -21 30 -7 17 -16 30 -20 30 -4 0 1 -17 11 -37z"/>
<path d="M5565 3418 c19 -63 18 -66 -11 -71 -29 -4 -29 -4 3 -6 22 -1 34 -7
38 -22 4 -11 9 -19 11 -17 5 5 -36 138 -43 138 -3 0 -2 -10 2 -22z"/>
<path d="M5648 3370 c-2 -45 1 -70 8 -70 6 0 9 13 6 30 -6 41 21 40 38 0 7
-17 15 -29 17 -26 3 3 -2 18 -10 34 -9 20 -11 35 -5 46 9 17 2 56 -10 56 -4 0
-7 -14 -7 -32 0 -17 -6 -33 -14 -36 -10 -3 -12 4 -9 32 2 20 1 36 -3 36 -4 0
-9 -32 -11 -70z"/>
<path d="M5070 3330 c0 -16 4 -30 8 -30 5 0 7 14 4 30 -2 17 -6 30 -8 30 -2 0
-4 -13 -4 -30z"/>
<path d="M4966 3325 c4 -8 8 -15 10 -15 2 0 4 7 4 15 0 8 -4 15 -10 15 -5 0
-7 -7 -4 -15z"/>
<path d="M4640 3056 c0 -2 7 -9 15 -16 13 -11 14 -10 9 4 -5 14 -24 23 -24 12z"/>
<path d="M4690 3035 c0 -14 2 -25 4 -25 2 0 6 11 8 25 3 14 1 25 -3 25 -5 0
-9 -11 -9 -25z"/>
<path d="M4800 3054 c0 -6 7 -19 15 -30 8 -10 14 -14 14 -9 0 6 -6 19 -14 29
-8 11 -15 15 -15 10z"/>
<path d="M4907 3053 c-11 -10 -8 -43 3 -43 6 0 10 11 10 25 0 26 -2 29 -13 18z"/>
<path d="M5030 3035 c1 -26 2 -28 11 -12 8 14 8 22 0 30 -8 8 -11 3 -11 -18z"/>
<path d="M5071 3038 c-1 -16 4 -28 9 -28 12 0 12 8 0 35 -8 18 -9 17 -9 -7z"/>
<path d="M5160 3035 c0 -14 5 -25 10 -25 6 0 10 11 10 25 0 14 -4 25 -10 25
-5 0 -10 -11 -10 -25z"/>
<path d="M5283 3044 c-3 -8 -1 -20 6 -27 8 -8 11 -4 11 16 0 30 -7 35 -17 11z"/>
<path d="M5312 2530 c0 -14 2 -19 5 -12 2 6 2 18 0 25 -3 6 -5 1 -5 -13z"/>
<path d="M5925 2490 l-50 -7 58 -1 c32 -1 57 2 57 8 0 6 -3 9 -7 8 -5 0 -30
-4 -58 -8z"/>
</g>
</svg>
