<?xml version="1.0" standalone="no"?>
<!DOCTYPE svg PUBLIC "-//W3C//DTD SVG 20010904//EN"
 "http://www.w3.org/TR/2001/REC-SVG-20010904/DTD/svg10.dtd">
<svg version="1.0" xmlns="http://www.w3.org/2000/svg"
 width="474.000000pt" height="474.000000pt" viewBox="0 0 474.000000 474.000000"
 preserveAspectRatio="xMidYMid meet">

<g transform="translate(0.000000,474.000000) scale(0.100000,-0.100000)"
fill="#000000" stroke="none">
<path d="M2145 4683 c-11 -2 -29 -6 -41 -8 -21 -5 -52 -55 -34 -55 6 0 10 5
10 12 0 6 3 8 6 5 4 -4 1 -14 -6 -22 -10 -13 -15 -13 -21 -3 -12 18 -22 3 -14
-22 4 -14 12 -19 23 -16 9 3 23 2 31 -3 10 -7 8 -12 -10 -24 -12 -9 -27 -13
-32 -10 -6 4 -8 -1 -4 -11 4 -10 7 -19 7 -22 0 -2 7 -1 15 2 12 5 15 -2 15
-27 0 -26 -3 -30 -10 -19 -7 12 -10 12 -10 1 0 -7 -6 -11 -15 -7 -12 4 -15
-10 -14 -89 0 -90 2 -96 28 -122 26 -27 27 -32 29 -146 2 -80 -2 -124 -10
-137 -11 -17 -10 -22 2 -30 13 -9 13 -10 0 -11 -9 0 -4 -6 10 -12 39 -19 80
-48 80 -59 0 -5 -15 2 -33 16 -45 35 -67 34 -66 -1 0 -27 0 -28 10 -5 8 22 29
22 29 1 0 -6 -5 -7 -12 -3 -8 5 -9 2 -5 -10 4 -10 7 -23 7 -29 0 -6 7 -1 16
11 22 32 34 27 32 -12 -1 -33 -3 -34 -33 -32 l-31 3 0 -56 c1 -31 -1 -76 -4
-101 -7 -58 -17 85 -26 373 -3 114 -10 207 -15 207 -5 0 -7 -33 -4 -72 14
-214 14 -579 0 -853 -21 -443 -20 -435 -107 -571 -52 -79 -72 -96 -257 -219
-152 -101 -199 -152 -225 -245 -25 -89 -20 -167 44 -609 75 -529 154 -1091
175 -1246 19 -150 36 -194 86 -240 78 -70 185 -98 444 -115 411 -27 782 48
879 178 26 34 47 229 27 241 -9 6 -10 11 -2 15 6 4 8 18 5 33 -5 18 -2 30 8
37 11 8 23 83 47 301 17 160 41 367 51 460 40 349 50 470 52 590 0 28 6 56 12
64 8 11 8 13 -1 7 -18 -10 -16 2 3 21 13 13 15 37 12 137 -2 102 -7 128 -26
168 -28 57 -90 128 -128 148 -16 8 -31 18 -34 21 -17 22 -115 77 -129 72 -9
-4 -13 -3 -9 2 9 9 -4 22 -67 65 -78 53 -155 138 -186 205 -19 42 -31 90 -38
160 -21 197 -61 688 -61 756 0 39 -4 69 -10 69 -6 0 -10 -31 -11 -72 -2 -112
-17 -44 -18 80 -1 68 -5 102 -12 102 -7 0 -8 4 -2 13 5 6 7 78 5 160 l-4 147
-38 0 c-43 0 -61 -15 -30 -23 14 -3 20 -14 21 -34 5 -107 3 -180 -6 -192 -8
-12 -5 -13 20 -7 l30 7 -22 -22 c-20 -20 -23 -21 -53 -6 l-32 16 4 -133 c3
-96 1 -136 -8 -144 -9 -8 -10 -21 -3 -44 5 -18 12 -107 14 -198 3 -91 9 -199
14 -240 15 -113 31 -414 22 -423 -4 -4 -25 -4 -47 1 -35 7 -38 11 -34 33 6 30
6 839 0 859 -3 8 -12 18 -20 22 -12 5 -10 8 8 14 38 11 4 25 -44 18 -30 -4
-54 0 -88 14 -25 12 -46 24 -46 27 0 3 4 4 9 1 4 -3 7 17 6 44 -2 34 3 59 17
81 26 43 31 32 13 -27 -8 -27 -15 -50 -15 -51 0 -1 11 9 25 23 30 29 49 23 41
-15 l-5 -26 12 28 c8 21 18 27 40 27 25 0 29 -3 24 -21 -4 -16 -3 -19 5 -11 6
6 7 18 3 29 -5 10 -7 43 -6 74 2 40 -2 60 -13 72 -12 11 -13 17 -3 21 6 2 1 4
-12 3 -13 -1 -26 4 -28 11 -3 6 2 12 11 12 20 0 21 19 1 26 -17 7 -21 34 -5
34 6 0 10 9 10 20 0 11 -5 20 -11 20 -8 0 -8 4 1 15 6 8 9 18 6 24 -4 5 3 13
15 16 26 9 14 22 -26 28 -27 4 -26 4 8 6 43 1 42 20 -1 22 -19 1 -13 4 18 10
25 5 84 7 133 5 48 -2 90 0 93 5 6 11 2 11 -156 9 -120 -1 -124 0 -107 17 18
19 108 23 195 8 34 -6 42 -4 42 8 0 8 -8 21 -17 28 -11 10 -14 10 -9 2 5 -10
-17 -13 -99 -13 -80 0 -106 3 -103 12 3 7 15 15 29 19 23 6 23 7 -8 14 -44 10
-55 26 -50 72 l4 38 1 -42 c3 -64 22 -64 22 0 0 46 3 56 23 65 20 10 20 11
-13 12 -63 3 -2 19 73 19 l68 1 -4 -67 c-2 -38 -2 -51 0 -30 2 20 9 37 15 37
7 0 9 -18 6 -50 -3 -31 -1 -51 6 -54 6 -2 -8 -5 -32 -5 -24 -1 -41 -5 -38 -10
3 -5 16 -7 28 -3 13 3 19 1 15 -5 -3 -5 0 -10 8 -10 8 0 15 5 15 10 0 5 21 6
50 2 34 -5 50 -3 50 4 0 6 -9 11 -19 11 -10 0 -22 7 -25 16 -9 23 -7 36 3 30
5 -3 11 3 14 14 3 11 1 22 -3 25 -5 3 -11 -3 -13 -12 -3 -13 -5 -11 -7 7 -2
23 -3 23 -9 -5 -6 -30 -23 -38 -29 -13 -2 9 0 8 8 -2 9 -13 10 -12 7 5 -2 11
3 32 10 48 13 26 13 27 -14 28 -24 0 -25 1 -8 8 19 8 18 9 -5 13 -17 4 -12 6
17 7 31 1 45 6 53 21 11 20 -3 30 -15 10 -13 -21 -24 1 -14 28 7 18 7 28 0 30
-5 2 -7 10 -4 18 3 7 10 11 17 8 6 -4 4 1 -5 10 -10 11 -36 19 -75 21 -33 3
-48 1 -33 -3 21 -6 24 -11 19 -32 -4 -17 -8 -21 -14 -12 -6 9 -11 9 -23 -3
-12 -12 -18 -13 -29 -4 -16 13 -30 6 -19 -10 3 -6 24 -11 45 -11 22 0 53 -8
70 -19 l31 -18 -83 -7 c-73 -5 -146 -1 -156 9 -2 2 16 9 40 16 23 7 44 14 46
15 10 6 -31 64 -46 65 -11 1 -8 4 8 9 26 8 -167 12 -205 3z m215 -33 c0 -5 -4
-10 -10 -10 -5 0 -10 5 -10 10 0 6 5 10 10 10 6 0 10 -4 10 -10z m137 -12 c-3
-8 -6 -5 -6 6 -1 11 2 17 5 13 3 -3 4 -12 1 -19z m-427 -213 c0 -8 -4 -15 -10
-15 -5 0 -7 7 -4 15 4 8 8 15 10 15 2 0 4 -7 4 -15z m20 -26 c0 -11 -4 -17
-10 -14 -5 3 -10 -1 -10 -9 0 -9 -4 -16 -10 -16 -5 0 -10 9 -10 20 0 11 7 20
15 20 8 0 15 5 15 10 0 6 2 10 5 10 3 0 5 -9 5 -21z m-9 -66 c-10 -4 -11 -7
-1 -13 16 -10 6 -40 -13 -40 -9 0 -14 12 -15 30 -1 25 3 30 21 29 13 0 16 -3
8 -6z m22 -90 c-7 -2 -19 -2 -25 0 -7 3 -2 5 12 5 14 0 19 -2 13 -5z m64 -75
c-3 -8 -6 -5 -6 6 -1 11 2 17 5 13 3 -3 4 -12 1 -19z m6 -58 c3 -11 2 -22 -2
-24 -4 -3 -8 6 -9 20 -2 29 4 31 11 4z m7 -44 c0 -3 -4 -8 -10 -11 -5 -3 -10
-1 -10 4 0 6 5 11 10 11 6 0 10 -2 10 -4z m54 -207 c-1 -31 -7 -57 -17 -66
-14 -14 -15 -12 -7 23 12 52 4 56 -11 5 -11 -36 -39 -77 -39 -57 0 19 65 146
74 146 1 0 1 -23 0 -51z m403 -726 c-2 -16 -4 -5 -4 22 0 28 2 40 4 28 2 -13
2 -35 0 -50z m10 -105 c-3 -8 -6 -5 -6 6 -1 11 2 17 5 13 3 -3 4 -12 1 -19z
m44 -229 c21 -40 165 -200 204 -226 47 -32 39 -41 -14 -14 -22 12 -44 21 -48
21 -11 -1 119 -70 130 -70 5 0 18 -11 29 -25 11 -14 24 -22 30 -19 7 4 8 2 4
-4 -4 -7 -3 -12 2 -12 11 0 32 -45 32 -70 0 -19 -1 -19 -20 -2 -13 10 -38 17
-66 18 -25 0 -49 5 -52 11 -19 27 -45 30 -106 11 -33 -11 -97 -21 -141 -24
l-80 -4 65 15 c82 19 121 35 114 46 -3 5 -10 7 -15 4 -5 -4 -9 1 -9 9 0 19
-33 41 -107 72 -72 29 -54 32 23 3 31 -12 73 -36 93 -53 20 -17 43 -30 51 -30
8 1 23 2 33 3 9 0 17 5 17 9 0 17 -113 81 -189 107 -45 16 -79 30 -77 32 4 5
146 -23 179 -36 53 -20 25 5 -69 63 -52 32 -94 60 -92 62 2 2 21 -1 42 -7 21
-6 39 -9 41 -7 2 2 -5 36 -15 76 -10 39 -21 100 -24 134 l-6 63 14 -67 c8 -36
20 -77 27 -89z m-117 -113 c34 -19 61 -38 61 -42 0 -11 -48 -7 -135 11 -61 12
-63 13 -22 14 23 0 42 5 42 10 0 5 -21 18 -47 30 l-48 22 44 -6 c25 -3 72 -21
105 -39z m-690 -88 c-4 -7 -13 -20 -21 -30 -11 -12 -11 -18 -3 -23 9 -6 9 -10
-1 -16 -8 -5 -18 -9 -24 -9 -5 0 -3 5 5 10 11 7 11 10 2 10 -8 0 -3 13 14 35
26 34 42 47 28 23z m236 -22 c0 -2 -7 -7 -16 -10 -8 -3 -12 -2 -9 4 6 10 25
14 25 6z m-116 -52 c-32 -19 -68 -43 -78 -52 -15 -14 -18 -14 -14 -2 4 15 124
90 142 90 6 0 -17 -16 -50 -36z m111 -6 c-53 -27 -86 -54 -78 -62 3 -3 1 -6
-5 -6 -17 0 -15 15 6 32 21 19 93 57 107 57 6 0 -8 -9 -30 -21z m329 -3 c-4
-8 -8 -15 -10 -15 -2 0 -4 7 -4 15 0 8 4 15 10 15 5 0 7 -7 4 -15z m-665 -32
c-6 -7 -17 -13 -23 -12 -7 0 -6 2 2 6 6 2 10 8 8 12 -3 4 1 8 9 8 11 0 12 -4
4 -14z m516 -22 c-8 -17 -20 -31 -25 -31 -5 0 0 16 12 35 25 43 36 40 13 -4z
m315 19 c0 -5 -4 -10 -10 -10 -5 0 -10 5 -10 10 0 6 5 10 10 10 6 0 10 -4 10
-10z m-895 -51 c-15 -24 -24 -34 -20 -22 5 18 3 22 -10 17 -9 -4 -14 -8 -12
-11 3 -2 -10 -19 -27 -38 -47 -51 -56 -63 -56 -75 0 -6 -16 -26 -35 -45 -19
-19 -39 -44 -45 -56 -7 -11 -14 -18 -17 -15 -10 10 61 117 74 112 7 -3 10 1 7
8 -7 19 47 88 97 121 24 16 48 36 52 43 5 8 11 12 13 9 3 -2 -7 -24 -21 -48z
m1020 21 c-6 -9 -93 -30 -125 -30 -11 0 -20 5 -20 11 0 5 5 7 10 4 6 -3 15 -3
21 1 7 4 27 8 46 9 19 1 39 7 45 13 12 12 31 6 23 -8z m-225 6 c0 -3 -4 -8
-10 -11 -5 -3 -10 -1 -10 4 0 6 5 11 10 11 6 0 10 -2 10 -4z m-730 -10 c0 -2
-8 -10 -17 -17 -16 -13 -17 -12 -4 4 13 16 21 21 21 13z m1346 -48 c17 -18 36
-48 43 -67 14 -43 14 -50 -2 -30 -7 9 -21 19 -32 22 -17 6 -75 98 -75 120 0
13 33 -10 66 -45z m-1091 15 c30 -9 55 -20 55 -24 0 -10 -110 17 -123 30 -16
16 2 14 68 -6z m681 -43 c-17 -6 -36 -5 -45 0 -11 7 -3 9 29 9 42 -1 43 -1 16
-9z m-99 -6 c-3 -3 -12 -4 -19 -1 -8 3 -5 6 6 6 11 1 17 -2 13 -5z m183 -24
c-14 -4 -68 -8 -120 -7 -88 0 -90 1 -30 6 113 10 178 11 150 1z m-662 -17
c-16 -2 -40 -2 -55 0 -16 2 -3 4 27 4 30 0 43 -2 28 -4z m439 1 c-3 -3 -12 -4
-19 -1 -8 3 -5 6 6 6 11 1 17 -2 13 -5z m173 -34 c8 -5 11 -12 7 -16 -10 -11
-162 -10 -222 1 l-50 9 45 7 c71 10 204 10 220 -1z m-40 -420 c-12 -7 -12 -10
-1 -10 7 0 11 -6 7 -15 -3 -9 0 -15 9 -15 19 0 19 -16 1 -23 -11 -4 -13 -14
-8 -34 3 -15 5 -53 4 -83 -1 -30 3 -65 10 -78 9 -18 9 -30 -1 -57 -7 -19 -9
-39 -6 -45 3 -6 -1 -17 -9 -26 -9 -8 -16 -23 -16 -32 0 -29 58 71 72 123 15
62 14 61 32 45 13 -10 19 -9 31 4 32 31 56 15 47 -31 -3 -18 -8 -21 -17 -13
-20 17 -42 -13 -65 -89 -16 -52 -27 -71 -46 -79 -18 -9 -24 -9 -24 0 0 8 -3 9
-10 2 -6 -6 -12 -31 -15 -56 -4 -36 -1 -47 12 -52 29 -12 2 -21 -62 -21 -35 0
-60 2 -56 5 5 3 7 13 5 23 -1 11 4 17 18 17 18 0 18 1 4 16 -9 8 -20 12 -26 9
-24 -15 -7 13 20 33 18 13 30 18 30 11 0 -7 3 -10 6 -6 3 3 1 14 -5 24 -6 11
-11 13 -11 5 0 -7 -5 -10 -10 -7 -6 4 -9 1 -8 -6 2 -8 -11 -14 -38 -16 -38 -3
-41 -2 -51 31 -9 28 -7 41 13 82 13 27 31 54 39 60 14 11 14 13 0 28 -9 9 -12
16 -6 16 5 0 13 -4 16 -10 3 -5 11 -10 17 -10 7 0 6 5 -2 15 -7 8 -10 25 -6
40 4 14 2 25 -4 25 -14 0 -13 27 2 36 7 5 8 3 3 -6 -5 -8 -3 -11 6 -8 8 3 13
11 11 19 -2 7 -6 27 -8 43 -4 24 -3 28 5 16 13 -18 15 -1 2 19 -6 9 -14 -1
-26 -35 -10 -27 -25 -67 -35 -89 -10 -22 -28 -84 -40 -138 -27 -116 -21 -147
30 -147 16 0 30 -5 30 -11 0 -14 -68 -41 -89 -34 -51 16 -53 122 -3 263 16 45
28 82 26 82 -1 0 -32 -48 -68 -108 -58 -97 -142 -199 -154 -187 -3 2 0 10 5
17 24 30 82 292 68 306 -2 2 -22 -36 -45 -85 -88 -185 -102 -211 -133 -241
-32 -31 -107 -69 -107 -54 0 4 13 15 29 25 40 23 89 93 146 207 26 52 62 118
80 146 32 50 95 117 103 109 2 -2 -3 -25 -12 -52 -8 -26 -18 -73 -22 -103 -3
-30 -10 -73 -14 -95 -8 -37 -8 -38 6 -20 8 11 33 53 55 92 21 40 60 98 85 128
37 46 43 59 33 71 -10 12 -9 13 6 8 13 -5 16 -4 11 4 -5 8 -2 10 8 6 9 -4 18
1 22 10 5 12 20 16 58 16 36 0 47 -3 36 -10z m-816 -45 c107 -37 247 -142 309
-230 12 -16 -13 2 -54 40 -125 115 -316 203 -448 206 -46 1 -60 4 -46 10 33
14 165 0 239 -26z m7 -74 c-18 -18 -36 -65 -85 -233 -18 -59 -34 -92 -48 -103
-34 -23 -42 -18 -19 14 11 15 34 79 51 141 17 62 35 122 42 134 16 32 50 66
65 66 9 0 7 -6 -6 -19z m1057 -35 c2 -9 -2 -24 -9 -32 -17 -21 -33 -2 -25 31
7 28 29 29 34 1z m-1002 -17 c3 -6 -1 -18 -10 -27 -14 -14 -18 -15 -25 -3 -5
8 -7 20 -4 28 6 16 29 17 39 2z m1129 -19 c3 -5 -1 -36 -10 -69 -8 -32 -15
-67 -15 -77 1 -18 1 -18 15 0 23 30 26 14 5 -22 -20 -33 -50 -43 -50 -18 0 9
-11 3 -29 -15 -29 -28 -61 -31 -61 -5 0 6 -11 -2 -23 -18 -17 -21 -29 -27 -42
-23 -20 8 -18 35 13 150 16 58 21 66 32 52 14 -16 7 -83 -15 -137 -4 -10 -4
-18 -1 -18 3 0 21 31 41 69 48 97 120 164 140 131z m-1172 -123 c-6 -28 -14
-60 -18 -69 -15 -37 16 -16 55 37 22 30 51 62 63 70 34 22 79 28 100 13 17
-13 17 -16 -3 -72 -11 -33 -20 -67 -20 -78 0 -20 20 -24 38 -6 9 9 12 9 12 0
0 -6 -12 -19 -26 -29 -31 -20 -59 -8 -58 26 0 18 -1 19 -15 7 -38 -33 -62 -39
-82 -20 -10 9 -19 24 -19 32 0 12 -6 10 -24 -8 -44 -40 -68 -11 -46 56 5 16
14 49 20 73 9 32 14 41 23 32 8 -8 8 -25 0 -64z m1143 -136 c-44 -59 -114
-123 -175 -159 -46 -27 -148 -55 -164 -45 -6 3 -7 1 -3 -5 3 -6 -2 -13 -11
-15 -14 -4 -13 -5 4 -6 25 -1 37 -16 27 -32 -4 -8 -9 -7 -16 2 -8 11 -9 10 -5
-3 3 -9 -1 -24 -8 -35 -13 -16 -14 -15 -16 22 l-1 40 -8 -33 c-10 -43 -13 -46
-61 -48 -44 -2 -46 0 -52 66 -4 40 -2 46 14 46 24 0 24 -5 2 -22 -16 -12 -16
-13 8 -12 20 2 25 6 21 21 -3 10 -16 23 -29 28 -65 24 -132 62 -168 94 -22 19
-43 35 -47 35 -5 0 -8 4 -8 9 0 6 24 -6 53 -25 74 -49 135 -65 272 -70 l120
-4 72 34 c52 25 92 55 140 104 38 37 70 67 72 66 2 -2 -13 -26 -33 -53z m-657
-284 c0 -21 -1 -21 -9 -2 -12 28 -12 37 0 30 6 -3 10 -16 9 -28z m134 -17 c20
-1 20 -2 4 -11 -25 -14 -37 -3 -36 34 2 30 2 31 6 5 3 -21 10 -28 26 -28z m27
30 c0 -11 -2 -20 -4 -20 -2 0 -6 9 -9 20 -3 11 -1 20 4 20 5 0 9 -9 9 -20z
m-78 -22 c-9 -9 -12 -7 -12 12 0 19 3 21 12 12 9 -9 9 -15 0 -24z m258 3 c0
-5 -7 -14 -15 -21 -9 -8 -13 -21 -10 -34 5 -17 4 -18 -4 -5 -7 11 -7 24 2 43
12 25 27 35 27 17z m-52 -46 c0 -13 -7 -30 -14 -36 -21 -18 -17 -31 9 -24 17
5 14 -2 -17 -30 -22 -19 -36 -35 -32 -35 4 0 37 16 73 35 37 20 59 27 52 18
-12 -15 -12 -16 6 -10 17 6 18 5 4 -5 -9 -7 -14 -19 -11 -27 2 -7 -1 -16 -7
-20 -6 -4 -13 -37 -15 -74 -2 -37 -9 -74 -16 -82 -13 -15 -13 -15 34 -29 10
-3 11 -15 5 -53 -7 -43 -22 -265 -23 -350 -1 -18 -5 -33 -11 -33 -5 0 -4 -4 4
-9 18 -12 -108 -33 -171 -29 -47 3 -64 13 -31 20 13 2 17 14 18 56 0 48 -2 52
-24 52 -14 0 -33 -7 -43 -16 -15 -14 -20 -15 -33 -4 -12 10 -13 15 -3 21 7 4
-5 7 -27 6 -22 -1 -53 2 -70 6 -27 6 -28 6 -12 -6 9 -8 17 -17 17 -21 0 -12
-38 -6 -50 9 -7 8 -25 15 -41 15 -20 0 -29 5 -29 16 0 8 4 12 10 9 13 -8 50
12 50 27 0 9 -3 9 -12 0 -19 -19 -38 -14 -39 11 -1 37 0 121 2 135 1 7 9 10
16 8 8 -3 16 1 19 9 8 20 24 9 24 -15 0 -13 5 -17 15 -14 8 4 15 1 15 -5 0 -6
9 -11 20 -11 11 0 20 -4 20 -8 0 -5 20 -4 45 2 25 6 45 14 45 18 0 10 -1 10
-37 -3 -40 -14 -92 7 -122 50 l-22 31 28 -2 c40 -2 46 -7 31 -26 -12 -15 -11
-16 5 -3 10 8 15 21 12 32 -7 21 10 33 45 33 20 0 25 -5 25 -27 0 -14 5 -31
12 -38 9 -9 11 -7 6 10 -4 16 -2 22 8 20 22 -4 66 18 77 38 7 12 6 25 -3 44
-16 29 -11 39 17 39 18 0 26 25 10 32 -5 2 -12 14 -15 28 -6 23 -1 29 38 50
44 24 57 40 33 40 -9 0 -8 4 2 10 10 6 11 10 3 10 -8 0 -13 15 -13 40 0 36 3
40 33 49 32 9 32 9 4 10 -16 1 -26 5 -23 10 3 4 17 6 31 3 15 -2 25 0 25 7 0
6 4 11 9 11 5 0 9 -11 9 -25z m-93 -13 c-3 -3 -11 0 -18 7 -9 10 -8 11 6 5 10
-3 15 -9 12 -12z m-525 -487 c0 -8 -4 -15 -10 -15 -5 0 -10 7 -10 15 0 8 5 15
10 15 6 0 10 -7 10 -15z m60 -10 c0 -9 -6 -12 -15 -9 -8 4 -15 10 -15 15 0 5
7 9 15 9 8 0 15 -7 15 -15z m37 0 c0 -8 -4 -15 -8 -15 -11 0 -20 16 -12 24 11
11 20 7 20 -9z m37 -11 c4 -10 1 -14 -6 -12 -15 5 -23 28 -10 28 5 0 13 -7 16
-16z"/>
<path d="M2790 2596 c0 -2 7 -7 16 -10 8 -3 12 -2 9 4 -6 10 -25 14 -25 6z"/>
<path d="M2668 1863 c7 -3 16 -2 19 1 4 3 -2 6 -13 5 -11 0 -14 -3 -6 -6z"/>
<path d="M2620 1835 c0 -8 4 -15 10 -15 5 0 7 7 4 15 -4 8 -8 15 -10 15 -2 0
-4 -7 -4 -15z"/>
<path d="M2590 1829 c0 -5 5 -7 10 -4 6 3 10 8 10 11 0 2 -4 4 -10 4 -5 0 -10
-5 -10 -11z"/>
<path d="M2636 1551 c-4 -5 3 -7 14 -4 23 6 26 13 6 13 -8 0 -17 -4 -20 -9z"/>
<path d="M2606 1508 c-14 -22 -16 -66 -3 -60 4 1 10 2 14 2 4 0 2 5 -5 12 -7
7 -12 17 -12 23 0 5 4 3 10 -5 5 -8 12 -11 17 -7 4 5 1 12 -7 18 -13 8 -13 10
0 18 8 6 12 13 8 16 -4 4 -13 -4 -22 -17z"/>
<path d="M3017 1616 c-30 -49 -47 -116 -29 -116 7 0 19 15 28 33 20 38 45 127
36 127 -4 0 -20 -20 -35 -44z"/>
<path d="M2044 1581 c-55 -34 -78 -84 -54 -121 7 -12 13 -11 36 10 39 36 80
130 57 130 -5 0 -22 -9 -39 -19z"/>
<path d="M2642 1173 c-10 -19 -6 -43 7 -43 4 0 8 14 9 30 3 34 -3 38 -16 13z"/>
<path d="M2596 1161 c-4 -6 -1 -11 6 -11 10 0 10 -2 -1 -9 -8 -5 -9 -11 -3
-15 5 -3 13 2 16 11 8 19 -8 40 -18 24z"/>
<path d="M2720 985 c-7 -8 -8 -15 -2 -15 5 0 15 7 22 15 7 8 8 15 2 15 -5 0
-15 -7 -22 -15z"/>
<path d="M2496 673 c-17 -23 -18 -26 -2 -20 10 4 19 1 22 -8 4 -8 13 -15 21
-15 8 0 11 -4 8 -10 -3 -5 -2 -10 3 -10 6 0 9 11 8 25 0 15 -6 23 -13 21 -7
-3 -10 5 -8 20 3 31 -15 30 -39 -3z"/>
<path d="M2460 631 c0 -6 5 -13 10 -16 6 -3 10 1 10 9 0 9 -4 16 -10 16 -5 0
-10 -4 -10 -9z"/>
<path d="M2311 550 c-1 -35 -4 -42 -12 -30 -9 12 -10 12 -5 -3 3 -10 6 -26 6
-36 0 -21 62 -30 147 -20 33 3 53 36 32 50 -6 4 -8 16 -4 28 3 11 2 29 -4 38
-9 16 -11 16 -12 -4 -1 -13 -2 -29 -3 -35 -1 -7 2 -18 6 -24 5 -7 2 -18 -7
-28 -18 -18 -45 -22 -45 -6 0 5 -7 7 -15 4 -10 -4 -15 0 -15 11 0 10 5 15 13
12 21 -8 36 17 23 39 -16 27 -42 26 -55 -2 -6 -15 -7 -24 -1 -24 6 0 10 -11
10 -25 0 -28 -3 -29 -31 -15 -19 11 -27 40 -11 40 5 0 9 7 9 15 0 8 -4 15 -8
15 -4 0 -10 10 -12 23 -2 12 -5 2 -6 -23z m97 -12 c-6 -18 -28 -21 -28 -4 0 9
7 16 16 16 9 0 14 -5 12 -12z"/>
<path d="M2551 547 c-13 -21 -12 -21 5 -5 10 10 16 20 13 22 -3 3 -11 -5 -18
-17z"/>
<path d="M2540 501 c0 -6 4 -12 8 -15 5 -3 9 1 9 9 0 8 -4 15 -9 15 -4 0 -8
-4 -8 -9z"/>
<path d="M2490 472 c0 -14 43 -23 54 -12 7 7 4 10 -6 10 -9 0 -23 3 -32 6 -9
3 -16 2 -16 -4z"/>
<path d="M2040 4639 c0 -5 5 -7 10 -4 6 3 10 8 10 11 0 2 -4 4 -10 4 -5 0 -10
-5 -10 -11z"/>
<path d="M2586 4621 c-4 -7 -5 -15 -2 -18 9 -9 19 4 14 18 -4 11 -6 11 -12 0z"/>
<path d="M2362 4440 c0 -14 2 -19 5 -12 2 6 2 18 0 25 -3 6 -5 1 -5 -13z"/>
<path d="M2402 4435 c0 -16 2 -22 5 -12 2 9 2 23 0 30 -3 6 -5 -1 -5 -18z"/>
<path d="M2601 4314 c0 -11 3 -14 6 -6 3 7 2 16 -1 19 -3 4 -6 -2 -5 -13z"/>
<path d="M2445 4241 c6 -11 100 -9 111 2 4 4 -21 7 -55 7 -35 0 -60 -4 -56 -9z"/>
<path d="M2595 4070 c0 -119 3 -151 14 -155 12 -5 13 9 8 77 -4 46 -7 116 -7
156 0 39 -3 72 -7 72 -5 0 -8 -67 -8 -150z"/>
<path d="M2075 4200 c3 -5 8 -10 11 -10 2 0 4 5 4 10 0 6 -5 10 -11 10 -5 0
-7 -4 -4 -10z"/>
<path d="M2135 3819 c-4 -6 -5 -12 -2 -15 2 -3 7 2 10 11 7 17 1 20 -8 4z"/>
<path d="M2286 3815 c-3 -8 -1 -15 3 -15 5 0 11 7 15 15 3 8 1 15 -3 15 -5 0
-11 -7 -15 -15z"/>
<path d="M2352 3805 c-8 -17 -17 -23 -33 -20 -22 4 -67 -19 -52 -28 27 -15 85
-16 119 -2 38 16 40 24 7 29 -12 2 -17 11 -16 25 4 29 -11 27 -25 -4z"/>
</g>
</svg>
